<?xml version="1.0" encoding="UTF-8"?>
<svg viewBox="0 0 720 1280" xmlns="http://www.w3.org/2000/svg" xmlns:xlink="http://www.w3.org/1999/xlink" id="offstreet-map">
  <defs>
    <style>
      .booth { fill: transparent; stroke: transparent; stroke-width: 2; cursor: pointer; transition: all 0.2s; }
      .booth:hover { stroke: #1565C0; stroke-width: 3; fill: rgba(21,101,192,0.08); }
      .booth-label { font-family: Arial, sans-serif; font-size: 1px; text-anchor: middle; pointer-events: none; fill: transparent; }
    </style>
  </defs>

  <!-- Source map as background -->
  <image href="offstreet-bg.png" x="0" y="0" width="720" height="1280" preserveAspectRatio="xMidYMid meet"/>

  <!-- ============================================ -->
  <!-- ROW 1 (top vendor row): 40-44, 45/46, 47, 48 -->
  <!-- Measured from source image pixel positions -->
  <!-- ============================================ -->
  <rect id="booth-40" x="68" y="587" width="60" height="52" class="booth"/>
  <text x="98" y="617" class="booth-label">40</text>

  <rect id="booth-41" x="133" y="587" width="60" height="52" class="booth"/>
  <text x="163" y="617" class="booth-label">41</text>

  <rect id="booth-42" x="198" y="587" width="60" height="52" class="booth"/>
  <text x="228" y="617" class="booth-label">42</text>

  <rect id="booth-43" x="263" y="587" width="60" height="52" class="booth"/>
  <text x="293" y="617" class="booth-label">43</text>

  <rect id="booth-44" x="328" y="587" width="60" height="52" class="booth"/>
  <text x="358" y="617" class="booth-label">44</text>

  <!-- 45/46 double (gold/wider on source) -->
  <rect id="booth-45/46" x="393" y="587" width="105" height="52" class="booth"/>
  <text x="445" y="617" class="booth-label">45/46</text>

  <rect id="booth-47" x="505" y="587" width="55" height="52" class="booth"/>
  <text x="532" y="617" class="booth-label">47</text>

  <!-- 48 (gold/wider) -->
  <rect id="booth-48" x="567" y="587" width="95" height="52" class="booth"/>
  <text x="614" y="617" class="booth-label">48</text>

  <!-- ============================================ -->
  <!-- ROW 2: 39-34, 32/33, 31 -->
  <!-- ============================================ -->
  <rect id="booth-39" x="68" y="650" width="60" height="52" class="booth"/>
  <text x="98" y="680" class="booth-label">39</text>

  <rect id="booth-38" x="133" y="650" width="60" height="52" class="booth"/>
  <text x="163" y="680" class="booth-label">38</text>

  <rect id="booth-37" x="198" y="650" width="60" height="52" class="booth"/>
  <text x="228" y="680" class="booth-label">37</text>

  <rect id="booth-36" x="263" y="650" width="60" height="52" class="booth"/>
  <text x="293" y="680" class="booth-label">36</text>

  <rect id="booth-35" x="328" y="650" width="60" height="52" class="booth"/>
  <text x="358" y="680" class="booth-label">35</text>

  <rect id="booth-34" x="393" y="650" width="55" height="52" class="booth"/>
  <text x="420" y="680" class="booth-label">34</text>

  <!-- 32/33 combined (gold on source) -->
  <rect id="booth-32/33" x="450" y="650" width="90" height="52" class="booth"/>
  <text x="495" y="680" class="booth-label">32/33</text>

  <!-- 31 (gold) -->
  <rect id="booth-31" x="545" y="650" width="105" height="52" class="booth"/>
  <text x="597" y="680" class="booth-label">31</text>

  <!-- ============================================ -->
  <!-- ROW 3: 21, 22, 23, 24/25, 26, 27, 28/29 -->
  <!-- ============================================ -->
  <!-- 21 (gold/wide) -->
  <rect id="booth-21" x="68" y="790" width="98" height="52" class="booth"/>
  <text x="117" y="820" class="booth-label">21</text>

  <rect id="booth-22" x="175" y="790" width="55" height="52" class="booth"/>
  <text x="202" y="820" class="booth-label">22</text>

  <rect id="booth-23" x="235" y="790" width="55" height="52" class="booth"/>
  <text x="262" y="820" class="booth-label">23</text>

  <!-- 24/25 combined (gold) - source shows "24" as single wider booth but JSON has 24/25 -->
  <rect id="booth-24/25" x="298" y="790" width="98" height="52" class="booth"/>
  <text x="347" y="820" class="booth-label">24/25</text>

  <rect id="booth-26" x="405" y="790" width="52" height="52" class="booth"/>
  <text x="431" y="820" class="booth-label">26</text>

  <!-- 27 (gold/wide) -->
  <rect id="booth-27" x="460" y="790" width="98" height="52" class="booth"/>
  <text x="509" y="820" class="booth-label">27</text>

  <!-- 28/29 (at right edge) -->
  <rect id="booth-28/29" x="567" y="790" width="90" height="52" class="booth"/>
  <text x="612" y="820" class="booth-label">28/29</text>

  <!-- ============================================ -->
  <!-- ROW 4: 20, 19-12, 11 -->
  <!-- ============================================ -->
  <!-- 20 (gold/wide) -->
  <rect id="booth-20" x="68" y="855" width="98" height="52" class="booth"/>
  <text x="117" y="885" class="booth-label">20</text>

  <rect id="booth-19" x="175" y="855" width="55" height="52" class="booth"/>
  <text x="202" y="885" class="booth-label">19</text>

  <rect id="booth-18" x="235" y="855" width="55" height="52" class="booth"/>
  <text x="262" y="885" class="booth-label">18</text>

  <rect id="booth-17" x="295" y="855" width="55" height="52" class="booth"/>
  <text x="322" y="885" class="booth-label">17</text>

  <rect id="booth-16" x="355" y="855" width="55" height="52" class="booth"/>
  <text x="382" y="885" class="booth-label">16</text>

  <rect id="booth-15" x="415" y="855" width="55" height="52" class="booth"/>
  <text x="442" y="885" class="booth-label">15</text>

  <rect id="booth-14" x="475" y="855" width="55" height="52" class="booth"/>
  <text x="502" y="885" class="booth-label">14</text>

  <rect id="booth-13" x="535" y="855" width="55" height="52" class="booth"/>
  <text x="562" y="885" class="booth-label">13</text>

  <rect id="booth-12" x="592" y="855" width="55" height="52" class="booth"/>
  <text x="619" y="885" class="booth-label">12</text>

  <!-- 11 (gold) -->
  <rect id="booth-11" x="650" y="855" width="58" height="52" class="booth"/>
  <text x="679" y="885" class="booth-label">11</text>

  <!-- ============================================ -->
  <!-- ROW 5 (bottom): 1, 2-9 -->
  <!-- ============================================ -->
  <!-- 1 (gold/wide) -->
  <rect id="booth-1" x="68" y="1005" width="98" height="52" class="booth"/>
  <text x="117" y="1035" class="booth-label">1</text>

  <rect id="booth-2" x="175" y="1005" width="55" height="52" class="booth"/>
  <text x="202" y="1035" class="booth-label">2</text>

  <rect id="booth-3" x="235" y="1005" width="55" height="52" class="booth"/>
  <text x="262" y="1035" class="booth-label">3</text>

  <rect id="booth-4" x="295" y="1005" width="55" height="52" class="booth"/>
  <text x="322" y="1035" class="booth-label">4</text>

  <rect id="booth-5" x="355" y="1005" width="55" height="52" class="booth"/>
  <text x="382" y="1035" class="booth-label">5</text>

  <rect id="booth-6" x="415" y="1005" width="55" height="52" class="booth"/>
  <text x="442" y="1035" class="booth-label">6</text>

  <!-- 7/8 combined (gold) -->
  <rect id="booth-7/8" x="475" y="1005" width="98" height="52" class="booth"/>
  <text x="524" y="1035" class="booth-label">7/8</text>

  <rect id="booth-9" x="578" y="1005" width="55" height="52" class="booth"/>
  <text x="605" y="1035" class="booth-label">9</text>
</svg>
