<?xml version="1.0" encoding="UTF-8"?>
<svg viewBox="0 0 1632 1056" xmlns="http://www.w3.org/2000/svg" xmlns:xlink="http://www.w3.org/1999/xlink" id="plaza-map">
  <defs>
    <style>
      .booth { fill: transparent; stroke: transparent; stroke-width: 1.5; cursor: pointer; transition: all 0.2s; }
      .booth:hover { stroke: #1565C0; stroke-width: 2.5; fill: rgba(21,101,192,0.10); }
      .booth-label { font-family: Arial, sans-serif; font-size: 1px; text-anchor: middle; pointer-events: none; fill: transparent; }
    </style>
  </defs>

  <!-- Source map as background — THE map, perfectly accurate -->
  <image href="plaza-bg.png" x="0" y="0" width="1632" height="1056" preserveAspectRatio="xMidYMid meet"/>

  <!-- ============================================================ -->
  <!-- NORTH ROW 1 (Montezuma side, top): 43, 42, 41, 40, 39, X, X, 35 -->
  <!-- Then gap, then 59, 58, 57, 56, 55, 54, 53, 52 -->
  <!-- Then gap, 61, 62, 63, X(64) -->
  <!-- ============================================================ -->
  <rect id="booth-43" x="189" y="62" width="35" height="30" class="booth"/>
  <rect id="booth-42" x="237" y="62" width="35" height="30" class="booth"/>
  <rect id="booth-41" x="285" y="62" width="35" height="30" class="booth"/>
  <rect id="booth-40" x="338" y="62" width="35" height="30" class="booth"/>
  <rect id="booth-39" x="386" y="62" width="35" height="30" class="booth"/>
  <!-- 38,37,36 are in the X-closed area on source but exist in JSON -->
  <rect id="booth-38" x="420" y="62" width="22" height="22" class="booth" style="opacity:0.3;"/>
  <rect id="booth-37" x="444" y="62" width="22" height="22" class="booth" style="opacity:0.3;"/>
  <rect id="booth-36" x="468" y="62" width="22" height="22" class="booth" style="opacity:0.3;"/>
  <rect id="booth-35" x="540" y="38" width="28" height="58" class="booth"/>

  <!-- North center: 59-52 -->
  <rect id="booth-59" x="657" y="58" width="42" height="32" class="booth"/>
  <rect id="booth-58" x="703" y="58" width="42" height="32" class="booth"/>
  <rect id="booth-57" x="762" y="58" width="42" height="32" class="booth"/>
  <rect id="booth-56" x="813" y="58" width="42" height="32" class="booth"/>
  <rect id="booth-55" x="870" y="58" width="42" height="32" class="booth"/>
  <rect id="booth-54" x="937" y="58" width="42" height="32" class="booth"/>
  <rect id="booth-53" x="978" y="58" width="42" height="32" class="booth"/>
  <rect id="booth-52" x="1020" y="58" width="42" height="32" class="booth"/>

  <!-- NE: 61, 62, 63, 64 -->
  <rect id="booth-61" x="1115" y="68" width="28" height="28" class="booth"/>
  <rect id="booth-62" x="1190" y="55" width="42" height="32" class="booth"/>
  <rect id="booth-63" x="1235" y="55" width="42" height="32" class="booth"/>
  <rect id="booth-64" x="1280" y="55" width="30" height="30" class="booth" style="opacity:0.3;"/>
  <rect id="booth-60" x="1070" y="58" width="34" height="32" class="booth" style="opacity:0.3;"/>

  <!-- ============================================================ -->
  <!-- NORTH ROW 2: 25-27, 28-30, 31/32, 33, 34 ... 44, 45/46, 47-51 -->
  <!-- ============================================================ -->
  <!-- NW cluster -->
  <rect id="booth-25" x="82" y="72" width="42" height="30" class="booth"/>
  <rect id="booth-26" x="82" y="72" width="1" height="1" class="booth" style="opacity:0;"/>
  <rect id="booth-27" x="140" y="100" width="32" height="26" class="booth"/>
  <rect id="booth-28" x="175" y="107" width="32" height="26" class="booth"/>
  <rect id="booth-24" x="82" y="108" width="30" height="26" class="booth"/>
  <rect id="booth-23" x="100" y="130" width="32" height="26" class="booth"/>
  <rect id="booth-22" x="110" y="155" width="32" height="26" class="booth"/>
  <rect id="booth-21" x="120" y="178" width="32" height="26" class="booth"/>
  <rect id="booth-20" x="138" y="200" width="32" height="26" class="booth"/>

  <rect id="booth-29" x="225" y="120" width="32" height="26" class="booth"/>
  <rect id="booth-30" x="262" y="120" width="32" height="26" class="booth"/>

  <!-- Double overlays -->
  <rect id="booth-24/25" x="82" y="72" width="42" height="62" class="booth" style="fill:none;" pointer-events="all"/>
  <rect id="booth-28/29" x="175" y="107" width="82" height="26" class="booth" style="fill:none;" pointer-events="all"/>

  <!-- 31, 32, 33, 34 -->
  <rect id="booth-31" x="415" y="128" width="35" height="28" class="booth"/>
  <rect id="booth-32" x="453" y="128" width="35" height="28" class="booth"/>
  <rect id="booth-31/32" x="415" y="128" width="73" height="28" class="booth" style="fill:none;" pointer-events="all"/>
  <rect id="booth-33" x="498" y="128" width="35" height="28" class="booth"/>
  <rect id="booth-34" x="536" y="128" width="35" height="28" class="booth"/>

  <!-- 44, 45/46, 47, 48, 49, 50, 51 -->
  <rect id="booth-44" x="600" y="128" width="35" height="28" class="booth"/>
  <rect id="booth-45" x="650" y="128" width="32" height="28" class="booth"/>
  <rect id="booth-46" x="685" y="128" width="32" height="28" class="booth"/>
  <rect id="booth-45/46" x="650" y="128" width="67" height="28" class="booth" style="fill:none;" pointer-events="all"/>
  <rect id="booth-47" x="740" y="128" width="35" height="28" class="booth"/>
  <rect id="booth-48" x="782" y="128" width="35" height="28" class="booth"/>
  <rect id="booth-49" x="830" y="128" width="32" height="28" class="booth"/>
  <rect id="booth-50" x="880" y="115" width="32" height="28" class="booth" transform="rotate(12,896,129)"/>
  <rect id="booth-51" x="930" y="100" width="32" height="28" class="booth" transform="rotate(20,946,114)"/>

  <!-- NE second row: 65-68 -->
  <rect id="booth-65" x="1150" y="102" width="26" height="24" class="booth"/>
  <rect id="booth-66" x="1120" y="102" width="26" height="24" class="booth"/>
  <rect id="booth-67" x="1150" y="130" width="26" height="24" class="booth"/>
  <rect id="booth-68" x="1120" y="130" width="26" height="24" class="booth"/>

  <!-- ============================================================ -->
  <!-- EAST SIDE (Gurley): 69-72, 70/71, 73-78, A-J -->
  <!-- ============================================================ -->
  <rect id="booth-69" x="1255" y="180" width="32" height="26" class="booth"/>
  <rect id="booth-70" x="1300" y="180" width="32" height="26" class="booth"/>
  <rect id="booth-71" x="1335" y="180" width="32" height="26" class="booth"/>
  <rect id="booth-70/71" x="1300" y="180" width="67" height="26" class="booth" style="fill:none;" pointer-events="all"/>
  <rect id="booth-72" x="1375" y="180" width="28" height="26" class="booth"/>

  <rect id="booth-78" x="1230" y="228" width="32" height="28" class="booth"/>

  <!-- Pavement zone booths: 76, 75/74, 73, 77 -->
  <rect id="booth-76" x="1140" y="375" width="36" height="28" class="booth"/>
  <rect id="booth-75" x="1195" y="375" width="34" height="28" class="booth"/>
  <rect id="booth-74" x="1232" y="375" width="34" height="28" class="booth"/>
  <rect id="booth-74/75" x="1195" y="375" width="71" height="28" class="booth" style="fill:none;" pointer-events="all"/>
  <rect id="booth-73" x="1275" y="375" width="34" height="28" class="booth"/>

  <!-- 82, 84/83, 81, 80/79 -->
  <rect id="booth-82" x="1140" y="440" width="36" height="28" class="booth"/>
  <rect id="booth-84" x="1080" y="440" width="32" height="28" class="booth"/>
  <rect id="booth-83" x="1112" y="440" width="32" height="28" class="booth"/>
  <rect id="booth-83/84" x="1080" y="440" width="64" height="28" class="booth" style="fill:none;" pointer-events="all"/>
  <rect id="booth-81" x="1195" y="440" width="36" height="28" class="booth"/>
  <rect id="booth-80" x="1248" y="440" width="34" height="28" class="booth"/>
  <rect id="booth-79" x="1285" y="440" width="34" height="28" class="booth"/>
  <rect id="booth-79/80" x="1248" y="440" width="71" height="28" class="booth" style="fill:none;" pointer-events="all"/>

  <rect id="booth-77" x="1340" y="375" width="28" height="28" class="booth"/>

  <!-- Lettered booths A-J (far east, Gurley side) -->
  <rect id="booth-J" x="1410" y="55" width="22" height="32" class="booth"/>
  <rect id="booth-I" x="1410" y="158" width="22" height="32" class="booth"/>
  <rect id="booth-H" x="1410" y="195" width="22" height="32" class="booth"/>
  <rect id="booth-G" x="1410" y="265" width="22" height="32" class="booth"/>
  <rect id="booth-F" x="1410" y="345" width="22" height="32" class="booth"/>
  <rect id="booth-E" x="1410" y="415" width="22" height="32" class="booth"/>
  <rect id="booth-D" x="1410" y="465" width="22" height="32" class="booth"/>
  <rect id="booth-C" x="1410" y="508" width="22" height="32" class="booth"/>
  <rect id="booth-B" x="1410" y="558" width="22" height="32" class="booth"/>
  <rect id="booth-A" x="1410" y="645" width="22" height="32" class="booth"/>

  <!-- ============================================================ -->
  <!-- SOUTH SIDE (Cortez) -->
  <!-- ============================================================ -->
  <!-- SE cluster: 86-87, 93-89, 96-95, 97 -->
  <rect id="booth-86" x="1230" y="555" width="34" height="26" class="booth"/>
  <rect id="booth-87" x="1275" y="555" width="34" height="26" class="booth"/>

  <rect id="booth-93" x="1195" y="600" width="30" height="26" class="booth"/>
  <rect id="booth-92" x="1228" y="600" width="30" height="26" class="booth"/>
  <rect id="booth-91" x="1261" y="600" width="30" height="26" class="booth"/>
  <rect id="booth-90" x="1294" y="600" width="30" height="26" class="booth"/>
  <rect id="booth-89" x="1327" y="600" width="30" height="26" class="booth"/>

  <rect id="booth-97" x="1155" y="637" width="30" height="28" class="booth"/>
  <rect id="booth-96" x="1230" y="645" width="42" height="28" class="booth"/>
  <rect id="booth-95" x="1278" y="645" width="42" height="28" class="booth"/>

  <!-- S main row: 105-98, 94, 88, 85 -->
  <rect id="booth-105" x="375" y="572" width="38" height="26" class="booth"/>
  <rect id="booth-104" x="418" y="572" width="38" height="26" class="booth"/>
  <rect id="booth-103" x="461" y="572" width="38" height="26" class="booth"/>
  <rect id="booth-102" x="504" y="572" width="38" height="26" class="booth"/>
  <rect id="booth-101" x="547" y="572" width="38" height="26" class="booth"/>
  <rect id="booth-100" x="590" y="572" width="38" height="26" class="booth"/>
  <rect id="booth-99" x="640" y="580" width="30" height="26" class="booth"/>
  <rect id="booth-98" x="675" y="580" width="30" height="26" class="booth"/>

  <rect id="booth-94" x="1035" y="580" width="32" height="26" class="booth"/>
  <rect id="booth-88" x="1075" y="580" width="32" height="26" class="booth"/>
  <rect id="booth-85" x="1110" y="580" width="32" height="26" class="booth"/>

  <!-- Bottom S row: 106-110 -->
  <rect id="booth-106" x="375" y="710" width="50" height="30" class="booth"/>
  <rect id="booth-107" x="445" y="710" width="50" height="30" class="booth"/>
  <rect id="booth-108" x="505" y="710" width="50" height="30" class="booth"/>
  <rect id="booth-109" x="565" y="710" width="50" height="30" class="booth"/>
  <rect id="booth-110" x="625" y="710" width="50" height="30" class="booth"/>

  <!-- ============================================================ -->
  <!-- WEST SIDE (Goodwin): 1-8, 9-12, 13-24, 111-130 -->
  <!-- ============================================================ -->
  <!-- West column 1-8 (top to bottom along Goodwin) -->
  <rect id="booth-1" x="58" y="202" width="28" height="35" class="booth"/>
  <rect id="booth-2" x="58" y="268" width="28" height="35" class="booth"/>
  <rect id="booth-3" x="58" y="328" width="28" height="35" class="booth"/>
  <rect id="booth-4" x="58" y="395" width="28" height="35" class="booth"/>
  <rect id="booth-5" x="58" y="435" width="28" height="35" class="booth"/>
  <rect id="booth-6" x="58" y="478" width="28" height="35" class="booth"/>
  <rect id="booth-7" x="58" y="530" width="28" height="35" class="booth"/>
  <rect id="booth-8" x="58" y="568" width="28" height="35" class="booth"/>
  <rect id="booth-7/8" x="58" y="530" width="28" height="73" class="booth" style="fill:none;" pointer-events="all"/>

  <!-- Inner diagonal: 19-13 -->
  <rect id="booth-19" x="182" y="262" width="28" height="26" class="booth"/>
  <rect id="booth-18" x="218" y="302" width="26" height="26" class="booth" transform="rotate(-12,231,315)"/>
  <rect id="booth-17" x="262" y="350" width="26" height="26" class="booth" transform="rotate(-18,275,363)"/>
  <rect id="booth-16" x="298" y="395" width="26" height="26" class="booth" transform="rotate(-22,311,408)"/>
  <rect id="booth-15" x="328" y="435" width="26" height="26" class="booth" transform="rotate(-22,341,448)"/>
  <rect id="booth-14" x="355" y="468" width="28" height="26" class="booth" transform="rotate(-12,369,481)"/>
  <rect id="booth-13" x="385" y="498" width="28" height="26" class="booth"/>

  <!-- 10, 11/12 -->
  <rect id="booth-10" x="148" y="522" width="30" height="26" class="booth"/>
  <rect id="booth-11" x="198" y="510" width="38" height="26" class="booth"/>
  <rect id="booth-12" x="240" y="510" width="38" height="26" class="booth"/>

  <!-- 118-114 row -->
  <rect id="booth-118" x="260" y="545" width="38" height="26" class="booth"/>
  <rect id="booth-117" x="302" y="545" width="38" height="26" class="booth"/>
  <rect id="booth-116" x="344" y="545" width="38" height="26" class="booth"/>
  <rect id="booth-115" x="386" y="545" width="38" height="26" class="booth"/>
  <rect id="booth-114" x="428" y="545" width="38" height="26" class="booth"/>

  <!-- 113, 112 (curving) -->
  <rect id="booth-113" x="472" y="568" width="28" height="26" class="booth" transform="rotate(15,486,581)"/>
  <rect id="booth-112" x="502" y="600" width="28" height="26" class="booth" transform="rotate(25,516,613)"/>

  <!-- 119-121 (SW inner, curving) -->
  <rect id="booth-119" x="210" y="558" width="28" height="26" class="booth" transform="rotate(-8,224,571)"/>
  <rect id="booth-120" x="195" y="590" width="28" height="26" class="booth" transform="rotate(-18,209,603)"/>
  <rect id="booth-121" x="175" y="620" width="28" height="26" class="booth" transform="rotate(-25,189,633)"/>

  <!-- 9, 111, 122, 123, 124 -->
  <rect id="booth-9" x="102" y="622" width="30" height="26" class="booth"/>
  <rect id="booth-111" x="58" y="615" width="28" height="32" class="booth"/>
  <rect id="booth-122" x="88" y="652" width="28" height="26" class="booth"/>
  <rect id="booth-123" x="118" y="675" width="30" height="26" class="booth"/>
  <rect id="booth-124" x="100" y="710" width="34" height="26" class="booth"/>

  <!-- Bottom W row: 125/126, 127, 128, 129, 130 -->
  <rect id="booth-125" x="205" y="725" width="38" height="28" class="booth"/>
  <rect id="booth-126" x="247" y="725" width="38" height="28" class="booth"/>
  <rect id="booth-125/126" x="205" y="725" width="80" height="28" class="booth" style="fill:none;" pointer-events="all"/>
  <rect id="booth-127" x="300" y="725" width="38" height="28" class="booth"/>
  <rect id="booth-128" x="342" y="725" width="38" height="28" class="booth"/>
  <rect id="booth-129" x="462" y="725" width="50" height="28" class="booth"/>
  <rect id="booth-130" x="522" y="725" width="50" height="28" class="booth"/>
</svg>
